<svg width="22" height="23" viewBox="0 0 22 23" fill="none" xmlns="http://www.w3.org/2000/svg">
<path d="M18.8 3.7C16.7 1.6 13.9 0.5 11 0.5C8.1 0.5 5.3 1.6 3.2 3.7C1.1 5.8 0 8.6 0 11.5C0 14.4 1.1 17.2 3.2 19.3C5.3 21.4 8.1 22.5 11 22.5C13.9 22.5 16.7 21.4 18.8 19.3C20.9 17.2 22 14.4 22 11.5C22 8.6 20.9 5.8 18.8 3.7ZM17.4 17.9C15.7 19.6 13.4 20.5 11 20.5C8.6 20.5 6.3 19.6 4.6 17.9C2.9 16.2 2 13.9 2 11.5C2 9.1 2.9 6.8 4.6 5.1C6.3 3.4 8.6 2.5 11 2.5C13.4 2.5 15.7 3.4 17.4 5.1C19.1 6.8 20 9.1 20 11.5C20 13.9 19.1 16.2 17.4 17.9ZM15.3 7.8L10 13.1L7.7 10.8C7.3 10.4 6.7 10.4 6.3 10.8C5.9 11.2 5.9 11.8 6.3 12.2L9.3 15.2C9.5 15.4 9.8 15.5 10 15.5C10.2 15.5 10.5 15.4 10.7 15.2L16.7 9.2C17.1 8.8 17.1 8.2 16.7 7.8C16.3 7.4 15.7 7.4 15.3 7.8Z" fill="white"/>
</svg>
