<svg width="56" height="42" viewBox="0 0 56 42" fill="none" xmlns="http://www.w3.org/2000/svg">
<path d="M44.9 19.6C50.9 19.6 55.7 24.4 55.7 30.4C55.7 36.4 50.9 41.2 44.9 41.2C38.9 41.2 34.1 36.4 34.1 30.4C34.1 19.6 40.9 9.8 52.1 0.799995L53.1 1.79999C45.1 8.59999 39.9 14.8 37.5 22.4C39.5 20.6 42.1 19.6 44.9 19.6ZM11.3 19.6C17.3 19.6 22.1 24.4 22.1 30.4C22.1 36.4 17.3 41.2 11.3 41.2C5.3 41.2 0.500001 36.4 0.500001 30.4C0.500001 19.6 7.3 9.8 18.5 0.799995L19.5 1.79999C11.5 8.59999 6.3 14.8 4.1 22.4C5.9 20.6 8.5 19.6 11.3 19.6Z" fill="black"/>
</svg>
